<svg xmlns="http://www.w3.org/2000/svg" width="30" height="30" viewBox="0 0 30 30">
    <g>
        <g transform="translate(-1849 -24) translate(49 -3)">
            <circle cx="15" cy="15" r="15" fill="#45ce7c" transform="translate(1800 27)"/>
            <g>
                <path fill="#fff" d="M-634.954-322.066v-.392c0-1.433.57-2.485 2.157-3.9a2.773 2.773 0 0 0 1.157-2.2 1.375 1.375 0 0 0-1.506-1.477c-1.2 0-1.618.829-1.729 1.869h-3.014c.1-1.8 1.243-4.252 4.8-4.233 3.512.019 4.543 2.288 4.543 3.951 0 1.343-.438 2.274-1.986 3.707a3.127 3.127 0 0 0-1.222 2.444v.226zm0 4.656v-3.549h3.2v3.549z" transform="translate(1810.328 34.508) translate(637.889 332.394)"/>
            </g>
        </g>
    </g>
</svg>
