<svg xmlns="http://www.w3.org/2000/svg" width="17.268" height="19.998" viewBox="0 0 17.268 19.998">
    <g>
        <path fill="#45ce7c" d="M-515.65 157.858a8.711 8.711 0 0 0-12.2 0l-.111.111a8.461 8.461 0 0 0 .111 11.966l5.478 5.18a.908.908 0 0 0 1.249 0l5.478-5.18h-.005l.11-.11a8.462 8.462 0 0 0-.11-11.967z" transform="translate(-260 -30) translate(790.384 -125.366)"/>
        <path fill="#fff" d="M-521.75 167.686a3.636 3.636 0 0 1-3.636-3.636 3.636 3.636 0 0 1 3.636-3.636 3.636 3.636 0 0 1 3.636 3.636 3.636 3.636 0 0 1-3.636 3.636z" transform="translate(-260 -30) translate(790.384 -125.366)"/>
    </g>
</svg>
