<svg xmlns="http://www.w3.org/2000/svg" width="21.802" height="22.261" viewBox="0 0 21.802 22.261">
  <g id="그룹_60" transform="translate(-925.469 -290.805)">
    <path id="패스_106" d="M945.056,293.255l-15.783-2.45a1.766,1.766,0,0,0-1.766,1.765v8.749h2.025v-2.585a.549.549,0,0,1,.824-.475l5.545,3.2a.55.55,0,0,1,0,.952l-5.545,3.2a.549.549,0,0,1-.824-.475v-2.592h-2.025V311.3a1.766,1.766,0,0,0,1.766,1.766l15.783-2.452a1.765,1.765,0,0,0,1.764-1.764V295.02a1.765,1.765,0,0,0-1.764-1.765Z" transform="translate(0.451)"/>
    <path id="패스_107" d="M926.069,299.387v.011a.6.6,0,0,0,0,1.2v.01h1.889v-1.225Z" transform="translate(0 1.932)"/>
    <path id="패스_108" d="M929.533,303.781a.549.549,0,0,0,.824.475l5.545-3.2a.55.55,0,0,0,0-.952l-5.545-3.2a.549.549,0,0,0-.824.475v2.585h-2.025v1.225h2.025Z" transform="translate(0.451 1.356)" fill="#fff"/>
  </g>
</svg>
