<svg xmlns="http://www.w3.org/2000/svg" width="179" height="69.964" viewBox="0 0 179 69.964">
    <g>
        <g>
            <path d="M668.352 183.082h-6.775v-6.047h21.348v6.047h-6.775v17.085h-7.8z" transform="translate(-658.886 -173.828) translate(666.299 182.66) translate(-661.578 -177.035)"/>
            <path d="M679.976 194.351h-2.115v5.816h-7.8v-23.132H681.2a13.658 13.658 0 0 1 5.588 1.057 8.549 8.549 0 0 1 3.833 12 7.95 7.95 0 0 1-3.239 2.941l4.858 7.138h-8.327zm3.106-10.591a3.47 3.47 0 0 0-2.379-.711h-2.842v5.42h2.839a3.47 3.47 0 0 0 2.379-.71 2.917 2.917 0 0 0 0-4z" transform="translate(-658.886 -173.828) translate(666.299 182.66) translate(-646.698 -177.035)"/>
            <path d="M698.235 194.285v5.882H679v-23.132h18.8v5.882h-11.131v2.71h9.782v5.618h-9.782v3.04z" transform="translate(-658.886 -173.828) translate(666.299 182.66) translate(-631.019 -177.035)"/>
            <path d="M709.879 177.035v23.132h-6.411l-8.787-10.509v10.509h-7.6v-23.132h6.411l8.793 10.509v-10.509z" transform="translate(-658.886 -173.828) translate(666.299 182.66) translate(-616.857 -177.035)"/>
            <path d="M696.726 177.035h11.4a15.736 15.736 0 0 1 6.824 1.4 10.686 10.686 0 0 1 4.593 4.015 12.365 12.365 0 0 1 0 12.293 10.686 10.686 0 0 1-4.593 4.015 15.737 15.737 0 0 1-6.824 1.4h-11.4zm11.07 17.052a5.568 5.568 0 0 0 4.015-1.438 6.2 6.2 0 0 0 0-8.1 5.568 5.568 0 0 0-4.015-1.438h-3.272v10.971z" transform="translate(-658.886 -173.828) translate(666.299 182.66) translate(-599.934 -177.035)"/>
            <path d="M673.365 210.788a15.016 15.016 0 0 1-4.478-1.735l2.512-5.684a15.913 15.913 0 0 0 3.7 1.537 14.445 14.445 0 0 0 3.93.578 6.1 6.1 0 0 0 2.313-.314 1.008 1.008 0 0 0 .694-.942c0-.485-.3-.848-.909-1.091a19.541 19.541 0 0 0-2.991-.793 33.967 33.967 0 0 1-4.458-1.206 7.594 7.594 0 0 1-3.109-2.115 5.748 5.748 0 0 1-1.319-3.982 6.84 6.84 0 0 1 1.223-3.966 8.069 8.069 0 0 1 3.649-2.809 15.191 15.191 0 0 1 5.9-1.024 21.433 21.433 0 0 1 4.676.512 14.647 14.647 0 0 1 4.048 1.5l-2.346 5.656a14.322 14.322 0 0 0-6.444-1.718c-2 0-3.007.485-3.007 1.454 0 .463.3.81.895 1.041a18.762 18.762 0 0 0 2.938.743 30.07 30.07 0 0 1 4.461 1.14 7.769 7.769 0 0 1 3.159 2.1 5.629 5.629 0 0 1 1.336 3.966 6.782 6.782 0 0 1-1.22 3.949 8.238 8.238 0 0 1-3.654 2.809 14.928 14.928 0 0 1-5.9 1.041 24.266 24.266 0 0 1-5.599-.647z" transform="translate(-658.886 -173.828) translate(666.299 182.66) translate(-648.759 -159.132)"/>
            <path d="M696.531 204.685v5.882H677.3v-23.132h18.8v5.882h-11.135v2.71h9.782v5.618h-9.782v3.04z" transform="translate(-658.886 -173.828) translate(666.299 182.66) translate(-634.008 -158.795)"/>
            <path d="M702.737 206.536h-8.793l-1.551 4.032h-7.931l10.112-23.132h7.664l10.115 23.132h-8.066zm-2.151-5.618l-2.247-5.816-2.244 5.816z" transform="translate(-658.886 -173.828) translate(666.299 182.66) translate(-621.443 -158.795)"/>
            <path d="M704.961 204.751h-2.118v5.816h-7.8v-23.132h11.137a13.654 13.654 0 0 1 5.585 1.057 8.555 8.555 0 0 1 3.836 12 7.96 7.96 0 0 1-3.241 2.941l4.861 7.138h-8.331zm3.1-10.591a3.47 3.47 0 0 0-2.379-.71h-2.842v5.42h2.842a3.47 3.47 0 0 0 2.379-.711 2.909 2.909 0 0 0 0-4z" transform="translate(-658.886 -173.828) translate(666.299 182.66) translate(-602.882 -158.795)"/>
            <path d="M709.931 209.9a11.471 11.471 0 0 1-4.61-4.3 12.567 12.567 0 0 1 0-12.524 11.472 11.472 0 0 1 4.61-4.3 14.048 14.048 0 0 1 6.609-1.537 14.508 14.508 0 0 1 6.014 1.19 11.183 11.183 0 0 1 4.362 3.437l-4.924 4.4a6.317 6.317 0 0 0-5.056-2.71 5.16 5.16 0 0 0-3.932 1.57 6.712 6.712 0 0 0 0 8.427 5.16 5.16 0 0 0 3.932 1.57 6.317 6.317 0 0 0 5.056-2.71l4.924 4.4a11.183 11.183 0 0 1-4.362 3.437 14.509 14.509 0 0 1-6.014 1.19 14.047 14.047 0 0 1-6.609-1.54z" transform="translate(-658.886 -173.828) translate(666.299 182.66) translate(-587.792 -159.132)"/>
            <path d="M735.715 187.435v23.132h-7.8v-8.526h-7.2v8.526h-7.8v-23.132h7.8v8.2h7.2v-8.2z" transform="translate(-658.886 -173.828) translate(666.299 182.66) translate(-571.544 -158.795)"/>
        </g>
        <path fill="#38a67e" d="M837.886 243.792h-179v-69.964h179zm-176.246-2.754h173.492v-64.456H661.64z" transform="translate(-658.886 -173.828)"/>
    </g>
</svg>
