<svg xmlns="http://www.w3.org/2000/svg" width="218.5" height="43.278" viewBox="0 0 218.5 43.278">
    <defs>
        <style>
            .cls-1{fill:#28282d}
        </style>
    </defs>
    <g id="그룹_112" transform="translate(-851 -125.566)">
        <g id="그룹_111">
            <g id="그룹_99" transform="translate(109.695 -93.98)">
                <path id="패스_2980" d="M766.75 236.07a15.636 15.636 0 0 1-2.169 8.006 16.394 16.394 0 0 1-2.48 3.213 15.756 15.756 0 0 1-11.23 4.66H741.3v-31.758h9.567a15.714 15.714 0 0 1 4.218.563 15.962 15.962 0 0 1 3.8 1.606 15.729 15.729 0 0 1 3.213 2.491 16.394 16.394 0 0 1 2.48 3.213 15.636 15.636 0 0 1 2.169 8.006zm-6.358 0a9.239 9.239 0 0 0-.741-3.7 9.518 9.518 0 0 0-2.038-3.024 9.637 9.637 0 0 0-3.035-2.049 9.2 9.2 0 0 0-3.708-.752h-3.17v19.046h3.167a9.322 9.322 0 0 0 3.708-.745 9.48 9.48 0 0 0 5.073-5.069 9.352 9.352 0 0 0 .745-3.707z" class="cls-1" transform="translate(0 1.793)"/>
                <path id="패스_2981" d="M772.878 246.7h-1.463l-2.347-3.254a19.474 19.474 0 0 1-1.829 1.451 13.3 13.3 0 0 1-2.026 1.172 12.439 12.439 0 0 1-2.181.786 9.013 9.013 0 0 1-2.268.287 13.127 13.127 0 0 1-4.71-.839 11.189 11.189 0 0 1-3.852-2.449 11.469 11.469 0 0 1-2.6-3.931 13.859 13.859 0 0 1-.953-5.292 13.235 13.235 0 0 1 .953-5.084 12.121 12.121 0 0 1 2.6-3.976 11.751 11.751 0 0 1 3.852-2.571 12.121 12.121 0 0 1 4.71-.918 9.142 9.142 0 0 1 2.279.287 11.8 11.8 0 0 1 2.192.8 13.621 13.621 0 0 1 2.026 1.194 16.742 16.742 0 0 1 1.807 1.485l2.347-2.812h1.463zm-6.093-12.069a6.282 6.282 0 0 0-.476-2.4 6.938 6.938 0 0 0-1.293-2.06 6.517 6.517 0 0 0-1.917-1.44 5.243 5.243 0 0 0-2.336-.54 6.5 6.5 0 0 0-2.34.419 5.359 5.359 0 0 0-1.9 1.24 5.881 5.881 0 0 0-1.27 2.026 8.412 8.412 0 0 0 0 5.515 5.864 5.864 0 0 0 1.27 2.03 5.411 5.411 0 0 0 1.9 1.24 6.506 6.506 0 0 0 2.34.419 5.2 5.2 0 0 0 2.336-.544 6.44 6.44 0 0 0 1.917-1.436 6.986 6.986 0 0 0 1.293-2.06 6.283 6.283 0 0 0 .476-2.406z" class="cls-1" transform="translate(20.406 7.038)"/>
                <path id="패스_2982" fill="#f2ada7" d="M764.139 223.579a3.849 3.849 0 0 1-.321 1.572 4.047 4.047 0 0 1-.873 1.274 4.25 4.25 0 0 1-1.3.862 4.063 4.063 0 0 1-3.167 0 4.03 4.03 0 0 1-2.147-2.135 3.98 3.98 0 0 1 0-3.133 4.04 4.04 0 0 1 .862-1.285 4.114 4.114 0 0 1 1.285-.866 4.064 4.064 0 0 1 3.167 0 4.261 4.261 0 0 1 1.3.866 4.012 4.012 0 0 1 .873 1.285 3.86 3.86 0 0 1 .321 1.56z" transform="translate(40.882)"/>
                <path id="사각형_892" d="M0 0H6.09V23.719H0z" class="cls-1" transform="translate(797.889 230.023)"/>
                <path id="패스_2983" d="M765.2 252.974h-6.1v-33.152h6.1z" class="cls-1" transform="translate(49.48 .767)"/>
                <path id="패스_2984" d="M767.875 255.073v-6.089l3.368.042a5.079 5.079 0 0 0 1.7-.287 5.8 5.8 0 0 0 1.516-.8 6 6 0 0 0 1.232-1.206 6.54 6.54 0 0 0 .862-1.52c-.665.284-1.338.563-2.026.843a5.452 5.452 0 0 1-2.072.42 10.912 10.912 0 0 1-4.12-.775 10.023 10.023 0 0 1-5.658-5.681 12.149 12.149 0 0 1-.828-4.592v-13.11h6.021v13.112a6.032 6.032 0 0 0 .367 2.2 4.531 4.531 0 0 0 .986 1.572 3.965 3.965 0 0 0 1.448.941 5.13 5.13 0 0 0 1.784.31 3.737 3.737 0 0 0 1.761-.435 4.977 4.977 0 0 0 1.452-1.138 5.561 5.561 0 0 0 .975-1.606 5.016 5.016 0 0 0 .357-1.844v-13.112h6.093v20.728a11.914 11.914 0 0 1-.975 4.694 12.183 12.183 0 0 1-2.6 3.833 12.451 12.451 0 0 1-3.84 2.593 11.663 11.663 0 0 1-4.695.952z" class="cls-1" transform="translate(57.121 7.705)"/>
                <path id="패스_2985" d="M795.49 249.019a16.383 16.383 0 0 1-15 3.356 16.53 16.53 0 0 1-11.494-11.494 16.4 16.4 0 0 1 0-8.716 16.621 16.621 0 0 1 7.571-9.846 16.633 16.633 0 0 1 3.923-1.659 15.964 15.964 0 0 1 4.351-.586 16.478 16.478 0 0 1 5.692 1.005 15.774 15.774 0 0 1 4.959 2.937l-3.364 5.537a9.515 9.515 0 0 0-3.3-2.317 10.149 10.149 0 0 0-3.988-.809 9.839 9.839 0 0 0-3.942.8 10.4 10.4 0 0 0-3.213 2.162 10.134 10.134 0 0 0-2.17 3.209 9.867 9.867 0 0 0-.8 3.931 9.705 9.705 0 0 0 .8 3.908 10.221 10.221 0 0 0 5.383 5.371 9.775 9.775 0 0 0 3.942.8 10.08 10.08 0 0 0 3.988-.809 9.455 9.455 0 0 0 3.3-2.313z" class="cls-1" transform="translate(75.329 1.468)"/>
                <path id="패스_2986" d="M800.039 234.634a12.752 12.752 0 0 1-.952 4.948 12.374 12.374 0 0 1-2.593 3.965 12.146 12.146 0 0 1-3.84 2.638 12.069 12.069 0 0 1-9.434 0 12.16 12.16 0 0 1-6.46-6.6 12.82 12.82 0 0 1-.949-4.948 13.024 13.024 0 0 1 .949-5 12.25 12.25 0 0 1 2.6-3.976 12.094 12.094 0 0 1 3.856-2.623 11.714 11.714 0 0 1 4.706-.952 12.446 12.446 0 0 1 4.729.9 11.43 11.43 0 0 1 3.84 2.548 12.051 12.051 0 0 1 2.593 3.965 13.4 13.4 0 0 1 .955 5.135zm-6.093 0a7.033 7.033 0 0 0-.476-2.646 6.3 6.3 0 0 0-1.293-2.037 5.6 5.6 0 0 0-1.917-1.308 6.252 6.252 0 0 0-4.675 0 5.436 5.436 0 0 0-1.9 1.308 6.194 6.194 0 0 0-1.274 2.037 7.186 7.186 0 0 0-.465 2.646 6.86 6.86 0 0 0 .465 2.548 6.394 6.394 0 0 0 1.274 2.037 5.959 5.959 0 0 0 1.9 1.361 5.593 5.593 0 0 0 2.34.5 5.937 5.937 0 0 0 2.336-.465 5.816 5.816 0 0 0 1.917-1.308 6.142 6.142 0 0 0 1.293-2.037 7.058 7.058 0 0 0 .476-2.636z" class="cls-1" transform="translate(95.918 7.038)"/>
                <path id="패스_2987" d="M806.988 252.974h-1.463l-2.347-3.254a18.988 18.988 0 0 1-1.825 1.451 13.7 13.7 0 0 1-2.026 1.172 12.47 12.47 0 0 1-2.185.786 9.012 9.012 0 0 1-2.268.287 11.956 11.956 0 0 1-8.561-3.553 12.3 12.3 0 0 1-2.6-3.965 13.532 13.532 0 0 1 0-9.975 12.364 12.364 0 0 1 2.6-3.988 12.005 12.005 0 0 1 3.855-2.634 11.716 11.716 0 0 1 4.706-.952 10.429 10.429 0 0 1 1.648.132 8.4 8.4 0 0 1 1.663.431 6.954 6.954 0 0 1 1.516.786 4.618 4.618 0 0 1 1.2 1.194v-11.07h6.089zm-6.088-12.069a6.277 6.277 0 0 0-.476-2.4 6.936 6.936 0 0 0-1.3-2.06A6.517 6.517 0 0 0 797.21 235a5.22 5.22 0 0 0-2.336-.54 6.174 6.174 0 0 0-2.336.442 5.429 5.429 0 0 0-1.9 1.274 5.914 5.914 0 0 0-1.274 2.026 7.409 7.409 0 0 0-.465 2.7 6.746 6.746 0 0 0 1.739 4.539 5.912 5.912 0 0 0 1.9 1.395 5.459 5.459 0 0 0 2.336.51 5.173 5.173 0 0 0 2.336-.544 6.44 6.44 0 0 0 1.916-1.436 6.984 6.984 0 0 0 1.3-2.06 6.277 6.277 0 0 0 .474-2.401z" class="cls-1" transform="translate(115.235 .767)"/>
                <path id="패스_2988" d="M796.328 255.073v-6.089l3.368.042a5.079 5.079 0 0 0 1.7-.287 5.832 5.832 0 0 0 1.519-.8 5.987 5.987 0 0 0 1.228-1.206 6.554 6.554 0 0 0 .862-1.52c-.665.284-1.338.563-2.026.843a5.45 5.45 0 0 1-2.071.42 10.924 10.924 0 0 1-4.12-.775 10.021 10.021 0 0 1-5.658-5.681 12.149 12.149 0 0 1-.828-4.592v-13.11h6.021v13.112a6.113 6.113 0 0 0 .367 2.2 4.587 4.587 0 0 0 .986 1.572 3.948 3.948 0 0 0 1.452.941 5.093 5.093 0 0 0 1.78.31 3.727 3.727 0 0 0 1.761-.435 4.879 4.879 0 0 0 1.452-1.138 5.562 5.562 0 0 0 .975-1.606 5.016 5.016 0 0 0 .352-1.848v-13.108h6.093v20.728a11.914 11.914 0 0 1-.975 4.694 12.124 12.124 0 0 1-2.6 3.833 12.407 12.407 0 0 1-3.84 2.593 11.661 11.661 0 0 1-4.694.952z" class="cls-1" transform="translate(136.214 7.705)"/>
                <path id="패스_2989" fill="#d94848" d="M804.683 230.765a3.858 3.858 0 0 1-.287 1.493 3.623 3.623 0 0 1-.8 1.206 3.79 3.79 0 0 1-1.194.809 3.806 3.806 0 0 1-2.956 0 3.863 3.863 0 0 1-1.221-.809 3.69 3.69 0 0 1-.82-1.206 3.8 3.8 0 0 1-.3-1.493 3.668 3.668 0 0 1 .3-1.463 3.781 3.781 0 0 1 .82-1.2 3.919 3.919 0 0 1 1.221-.805 3.807 3.807 0 0 1 2.956 0 3.844 3.844 0 0 1 1.194.805 3.748 3.748 0 0 1 1.085 2.661z" transform="translate(155.122 20.72)"/>
            </g>
        </g>
    </g>
</svg>
